<?xml version="1.0" standalone="no"?>
<!DOCTYPE svg PUBLIC "-//W3C//DTD SVG 20010904//EN"
 "http://www.w3.org/TR/2001/REC-SVG-20010904/DTD/svg10.dtd">
<svg version="1.0" xmlns="http://www.w3.org/2000/svg"
 width="700.000000pt" height="700.000000pt" viewBox="0 0 700.000000 700.000000"
 preserveAspectRatio="xMidYMid meet">
<metadata>
Created by potrace 1.14, written by Peter Selinger 2001-2017
</metadata>
<g transform="translate(0.000000,700.000000) scale(0.100000,-0.100000)"
fill="#000000" stroke="none">
<path d="M1365 6544 c-265 -59 -493 -249 -592 -494 -41 -102 -55 -192 -51
-315 4 -93 10 -127 41 -216 42 -126 112 -269 174 -358 24 -35 41 -67 36 -71
-4 -4 -42 -30 -84 -58 -286 -190 -505 -434 -649 -721 -50 -100 -108 -287 -131
-422 -18 -106 -21 -150 -16 -304 8 -264 56 -453 177 -700 89 -182 114 -215
180 -238 159 -54 427 -21 705 87 341 134 713 365 1159 720 l140 111 -40 7
c-21 4 -106 7 -189 7 -222 1 -424 -30 -586 -89 -268 -99 -538 -41 -740 160
-73 73 -94 101 -132 180 -104 217 -104 423 0 639 38 79 59 108 131 181 104
104 174 145 338 199 366 120 826 172 1249 141 693 -52 1320 -277 1950 -700
219 -147 298 -226 365 -365 52 -105 73 -198 73 -315 0 -341 -232 -626 -565
-694 -96 -20 -174 -20 -274 -1 -107 20 -189 62 -389 196 -93 63 -228 144 -300
181 -139 71 -304 142 -312 135 -7 -8 150 -259 251 -401 156 -219 252 -333 435
-517 272 -271 537 -456 784 -545 l39 -14 71 59 c259 214 439 459 542 736 194
523 97 1106 -265 1594 -34 46 -60 84 -58 85 205 138 388 328 468 485 57 115
75 193 75 336 0 105 -5 145 -23 208 -76 266 -279 476 -549 570 -76 26 -106 31
-218 35 -155 5 -249 -14 -380 -77 -251 -120 -400 -337 -461 -668 l-16 -91 -33
14 c-89 37 -315 109 -437 139 -272 67 -497 95 -764 95 l-175 0 8 53 c4 28 8
131 8 227 0 155 -3 183 -23 250 -79 251 -266 441 -517 526 -68 23 -101 27
-220 30 -101 3 -159 -1 -210 -12z"/>
<path d="M1705 4441 c-97 -24 -184 -106 -211 -199 -54 -185 68 -357 262 -370
61 -4 80 -1 125 20 111 51 168 132 176 247 7 95 -21 164 -93 230 -77 70 -165
94 -259 72z"/>
<path d="M3780 4069 c-55 -25 -114 -80 -143 -134 -18 -33 -22 -57 -22 -130 0
-103 16 -144 82 -207 146 -142 381 -96 467 91 32 71 29 170 -7 243 -32 66 -92
120 -157 143 -62 22 -165 19 -220 -6z"/>
<path d="M2680 3918 c-110 -57 -131 -198 -42 -284 82 -79 203 -63 269 35 30
45 32 128 2 180 -45 81 -147 112 -229 69z"/>
<path d="M1720 2770 c0 -116 53 -239 149 -342 113 -122 242 -202 421 -262 165
-55 267 -69 460 -63 184 6 272 24 395 81 156 73 273 199 300 324 l7 32 -45
-30 c-250 -168 -732 -198 -1122 -69 -189 63 -345 157 -473 286 -46 45 -85 83
-87 83 -3 0 -5 -18 -5 -40z"/>
<path d="M440 2596 c0 -2 8 -10 18 -17 15 -13 16 -12 3 4 -13 16 -21 21 -21
13z"/>
<path d="M515 2500 c69 -89 272 -291 378 -374 80 -64 101 -86 79 -86 -19 0
-203 -117 -307 -195 -253 -189 -464 -441 -607 -725 l-58 -115 0 -502 0 -503
2200 0 2200 0 0 88 0 88 143 12 c560 46 1102 237 1613 568 208 134 338 298
402 504 31 103 37 150 18 150 -26 0 -91 72 -121 134 -50 103 -36 213 37 292
l39 42 -30 60 -30 59 -78 5 c-89 5 -138 26 -195 83 -51 51 -72 111 -65 179 l5
54 -36 18 c-20 9 -45 21 -55 26 -13 7 -19 4 -23 -9 -18 -60 -35 -80 -85 -108
-71 -39 -171 -42 -237 -7 -60 32 -115 84 -142 135 -26 49 -22 49 -130 15 -108
-34 -216 -94 -298 -166 -253 -222 -535 -429 -802 -587 -140 -83 -379 -207
-389 -203 -12 4 -134 148 -130 152 2 1 47 17 99 35 111 39 337 139 347 154 4
6 1 8 -8 4 -207 -91 -289 -123 -414 -165 -372 -125 -708 -182 -1072 -182 -449
1 -819 86 -1218 280 -338 164 -591 354 -911 682 -115 119 -153 153 -119 108z
m5405 -369 c129 -43 220 -100 312 -193 130 -131 196 -297 186 -465 -6 -94 -34
-156 -104 -226 -117 -119 -296 -207 -544 -268 -80 -20 -121 -23 -265 -24 -153
0 -177 2 -239 24 -91 31 -183 95 -223 155 -28 41 -33 57 -33 106 0 67 5 84 77
252 32 75 64 173 79 239 41 184 77 262 151 334 86 84 163 106 358 101 137 -3
158 -6 245 -35z"/>
</g>
</svg>
