<svg id="Capa_1" data-name="Capa 1" xmlns="http://www.w3.org/2000/svg" xmlns:xlink="http://www.w3.org/1999/xlink" viewBox="0 0 150 150"><defs><style>.cls-1{fill:none;}.cls-2{fill:#a6ce88;}.cls-3{clip-path:url(#clip-path);}.cls-4{opacity:0.25;}.cls-5{fill:#fff;}.cls-6{fill:#513e37;}.cls-7{fill:#eacd55;}.cls-8{fill:#89786f;}.cls-9{clip-path:url(#clip-path-3);}</style><clipPath id="clip-path"><circle class="cls-1" cx="75" cy="75" r="69.39"/></clipPath><clipPath id="clip-path-3"><polygon class="cls-1" points="114.78 39.71 16.41 44.12 30.83 133.24 107.55 129.8 134.65 137.83 114.78 39.71"/></clipPath></defs><circle class="cls-2" cx="75" cy="75" r="69.39"/><g class="cls-3"><g class="cls-4"><path class="cls-5" d="M44.44,93.24a12.87,12.87,0,0,0-4.23-7.13,8.83,8.83,0,0,0-9.59-1.27c-.37.2-.86.65-1.08.54s-.13-.76-.17-1.18c-.21-2.19-.44-4.39-.57-6.59,0-.7-.31-.8-.87-.71-1.07.15-2.13.32-3.2.42-.47.05-.5.18-.31.55.51,1,1,2,1.49,3a23.42,23.42,0,0,1,1.61,4.3c.05.2.12.44,0,.57s-.31-.09-.45-.17a8.79,8.79,0,0,0-4.12-1.08,10,10,0,0,0-8,4.23,11.82,11.82,0,0,0-2.46,8.75,21.6,21.6,0,0,0,3.24,9.39,54.57,54.57,0,0,1,4.24,7.39A10.88,10.88,0,0,1,21,118.8c0,.8.28.78.87.61a44.15,44.15,0,0,0,9.52-3.78,28.4,28.4,0,0,0,6.67-5A24.9,24.9,0,0,0,42,105.41,20.09,20.09,0,0,0,44.68,96,9.9,9.9,0,0,0,44.44,93.24ZM30.14,87a7.16,7.16,0,0,1,8.62.24,12.08,12.08,0,0,1,3.56,5,9.36,9.36,0,0,0-5.85-3.81c-2.43-.42-4.72-.17-6.4,2-.44-.94-.08-1.92-.35-2.84C29.65,87.3,30,87.13,30.14,87ZM14.46,93a9.67,9.67,0,0,1,4.9-5.87c2.69-1.31,5.4-1,8.09.13.87.35.7,1.14.83,1.78a8.42,8.42,0,0,1,0,1.67C23.44,86.74,16,89.52,14,96.4A8.28,8.28,0,0,1,14.46,93Zm.6,2.44a12.65,12.65,0,0,1,6.23-4.66,7.31,7.31,0,0,1,6.87,1.45c.8.63.34,1.47.49,2.35a8.32,8.32,0,0,0-8.4-1A10.6,10.6,0,0,0,14.46,100,4.18,4.18,0,0,1,15.06,95.45Zm6.33,18.34c-.67-1.48-1.4-2.91-2.18-4.31-1.19-2.13-2.82-4-3.77-6.27-.25-.6-.5-1.21-.72-1.82a1.41,1.41,0,0,1,.21-1.4,11.65,11.65,0,0,1,6-4.84,7.61,7.61,0,0,1,7.57,1.44.62.62,0,0,1,.28.57c0,.3,0,.61,0,.91s.16.68-.14.83-.45-.26-.67-.4a7.9,7.9,0,0,0-9.36.89A12.1,12.1,0,0,0,16,103c1.07-.93,2-1.78,2.93-2.51A7.49,7.49,0,0,1,25.73,99a5.4,5.4,0,0,1,2.59,1.76,1.15,1.15,0,0,1,.13.94c0,.32-.12.63-.2,1a7.06,7.06,0,0,0-8-.22,5,5,0,0,0-2.48,3.71c.91-.67,1.67-1.48,2.6-2.07a5.65,5.65,0,0,1,6.58,0,2,2,0,0,1,.45,2.37c-.16.26-.27.13-.41,0-1.85-1.52-3.89-1.29-5.9-.53a3.37,3.37,0,0,0-2.1,2.72,12.09,12.09,0,0,1,2.41-1.5c1.46-.6,4.17-.63,5.27.8a1.79,1.79,0,0,1-.29,1.9c-.27.14-.44-.12-.58-.24a4.09,4.09,0,0,0-2-.87,3.15,3.15,0,0,0-3.51,2.08,4.36,4.36,0,0,1,2.6-.7,2.76,2.76,0,0,1,1.55.48c1.3.88,1.37,1.37.36,2.58-.13.15-.2.24-.42.1a2,2,0,0,0-2.79.28A1.28,1.28,0,0,1,21.39,113.79Zm6.34,2a19.86,19.86,0,0,1-4.77,2c-.35.08-.51.1-.55-.32a8.17,8.17,0,0,0-.59-2.48c-.19-.45-.08-.66.41-.81a1.56,1.56,0,0,1,1.46.38c.45.33.14.73.06,1.1s-.3.59-.18,1.06a8.44,8.44,0,0,0,1.56-1.54c.14-.18.27-.46.48-.43a4.36,4.36,0,0,1,2.1.4C28,115.42,28.1,115.62,27.73,115.81Zm3.33-2.11c-.58.35-1.13.75-1.69,1.13-.28.19-.47.23-.74-.11a3.24,3.24,0,0,0-2.23-1.25l.88-1.76a.8.8,0,0,1,.54-.39,3.75,3.75,0,0,1,3.46,1.46C31.51,113.19,31.49,113.45,31.06,113.7Zm3.2-2.39c-.52.44-1,.86-1.58,1.28-.18.15-.31.24-.42-.09a3.2,3.2,0,0,0-3.19-2.44c-1,0-.9,0-.67-1s.65-1,1.48-1a4.84,4.84,0,0,1,4.25,1.66,5.3,5.3,0,0,1,.54.93A.82.82,0,0,1,34.26,111.31Zm3.66-3.19c-.65.63-1.28,1.28-1.93,1.91-.37.36-.64.35-.76-.22-.06-.24-.19-.47-.27-.7a4.23,4.23,0,0,0-5-2.74c-.52.1-.63-.06-.51-.55.24-1,.49-1.34,1.49-1.49a6.21,6.21,0,0,1,1.94-.17c2.57-.26,4.22,1.82,5.11,3.43A.38.38,0,0,1,37.92,108.12Zm1.9-2.44a8.35,8.35,0,0,1-1.27,1.63,20.53,20.53,0,0,0-.86-2.22A6.12,6.12,0,0,0,31,102.62c-.55.16-.68,0-.67-.52,0-1.5.94-2.19,2.82-2.36,3-.28,5.1,1.14,6.72,3.49C40.65,104.43,40.66,104.43,39.82,105.68Zm2.3-4.35a26.08,26.08,0,0,1-1.22,2.41A10.24,10.24,0,0,0,38.82,100a5.94,5.94,0,0,0-4-1.77,6.63,6.63,0,0,0-3.95.49c-.36.2-.42-.1-.46-.37-.24-1.52.12-2.14,1.61-2.5a10.75,10.75,0,0,1,4.61-.41c2.2.44,3.69,1.93,5.13,3.52A1.85,1.85,0,0,1,42.12,101.33Zm.74-2.06a10.56,10.56,0,0,0-5.22-5.44,6.67,6.67,0,0,0-7.2,1.08,22.23,22.23,0,0,1,0-2.33c.09-.76.75-1.15,1.34-1.52a6.62,6.62,0,0,1,5.45-.46,11.42,11.42,0,0,1,5.15,3,2.06,2.06,0,0,1,.69,1.28A13.46,13.46,0,0,1,42.86,99.27Z"/><path class="cls-5" d="M43.44,63.56a34,34,0,0,1-6.18-2.38c-.59-.32-.48-.51,0-.75a7.68,7.68,0,0,0,1.83-1.37,10.2,10.2,0,0,0,3.16-9.23A11.88,11.88,0,0,0,37,41.47a23,23,0,0,0-10.49-3.85,15.36,15.36,0,0,1-9.36-4.41c-.31-.33-.55-.38-.8,0a17.47,17.47,0,0,0-1,1.72,46.49,46.49,0,0,0-3.13,9.83c-.69,3.42-1.31,6.85-.66,10.36a5.67,5.67,0,0,0,1.56,3.23,5,5,0,0,1,5.28-4.46,4.18,4.18,0,0,1,3.54,2.3,4,4,0,0,1-.11,4.1,4.91,4.91,0,0,1-6.29,1.61,9.81,9.81,0,0,1-1.21-.71c-.3-.19-.41-.1-.39.21a2.15,2.15,0,0,0,.12.5,10.79,10.79,0,0,0,5.54,6.69,11.49,11.49,0,0,0,7,1.6,10,10,0,0,0,8.22-7.76c0-.13.08-.33.19-.38s.29.13.39.25a47.64,47.64,0,0,0,5.46,5.17c.25.22.4.12.54-.07.9-1.2,1.79-2.4,2.72-3.63ZM21.65,53.41c-.16-.11-.36-.25-.13-.47a9,9,0,0,0,1.29-2l.67.9a2.67,2.67,0,0,1,.19,3.1c-.16.28-.27.39-.5,0A5.06,5.06,0,0,0,21.65,53.41Zm11.24,8.13a7.43,7.43,0,0,1-5.62,6.25,9.7,9.7,0,0,1-8.7-2.31,1.21,1.21,0,0,1-.16-.16c-.28-.39-.89-.77-.78-1.15s.79-.11,1.21-.14A6,6,0,0,0,24,58.58a3.79,3.79,0,0,1,.73-2.75,5.89,5.89,0,0,0,.68-1.62c1.34.7,1.4,1.82,1.14,3.18a10.39,10.39,0,0,1-4,6.06,8.81,8.81,0,0,1-3.06,1.29,3.52,3.52,0,0,0,2.6.23c2.74-.61,4.36-2.51,5.48-4.95a11.34,11.34,0,0,0,.73-2.54c.08-.41.16-.44.5-.19a2.15,2.15,0,0,1,.75,2.4,8.91,8.91,0,0,1-3.65,5.93A15.12,15.12,0,0,1,23.19,67c4.68,0,7.48-2.74,7.82-7.62a12.47,12.47,0,0,1,1.59,1.16A1,1,0,0,1,32.89,61.54Zm2.25-2.14c-.79.39-1.3-.24-1.84-.61-.28-.19-.8-.34-.73-.71s.6-.21.92-.31c2-.67,3.81-1.67,4.68-3.74a8.86,8.86,0,0,0,.58-4.7c0-.29-.08-.58-.11-.89-.34.33-.28.79-.36,1.17a10.61,10.61,0,0,1-2.42,5,6.7,6.7,0,0,1-3.94,2c-1.2.26-1.55.08-2.51-1.12A8,8,0,0,0,36.3,44.91a4.36,4.36,0,0,0-.25,1.59c-.44,4.22-3.43,6.89-7.57,7.58-.78.13-1.16-.13-2-1.29a8.18,8.18,0,0,0,6.72-4.89,6.73,6.73,0,0,0,.17-5.2,2.24,2.24,0,0,0-.26,1.19,9,9,0,0,1-3.77,6.27A6.78,6.78,0,0,1,25,51.26a4.21,4.21,0,0,1-1.26-1.55c0-.29.22-.2.36-.24a11.86,11.86,0,0,0,2.65-.91,5.93,5.93,0,0,0,3-6.49,2.45,2.45,0,0,0-.34-.74,15.43,15.43,0,0,0-.23,1.76C29,45.62,26,48.36,23.44,48.16c-.58,0-1.61-1-1.59-1.56,0-.34.31-.32.54-.37a4.33,4.33,0,0,0,3.27-2.59,5.47,5.47,0,0,0,.08-3.35,15.68,15.68,0,0,1-1,2.78,3.3,3.3,0,0,1-3,1.84,1.45,1.45,0,0,1-1.51-1c-.14-.34-.48-.7-.42-1s.6-.3.93-.41A2.29,2.29,0,0,0,22,39.34a9.65,9.65,0,0,1-.68,1.32,2.7,2.7,0,0,1-1.85,1c-.32.07-.39-.22-.48-.45A31,31,0,0,1,17.56,37a2.81,2.81,0,0,0-.19,1.79,11.61,11.61,0,0,0,.55,2.59,2.36,2.36,0,0,1-2.23,2.94h-.9c.63,1.24,2.3,1,3.22.29s.83-.68,1.27.33c.3.72-.32,2.28-1.07,3a5.42,5.42,0,0,1-4,1.62.38.38,0,0,0-.21,0s-.07.06-.16.15a3.7,3.7,0,0,0,2.88.49,4.6,4.6,0,0,0,3.53-2.39c.18-.35.29-.41.53,0a2.93,2.93,0,0,1-1,4.39.87.87,0,0,1-.61.18,6.43,6.43,0,0,0-5.46,1.28c-.32.28-.34,0-.38-.25a18.32,18.32,0,0,1,0-5.07,41,41,0,0,1,2-8.68,21.39,21.39,0,0,1,1.36-3.19c.37-.68.46-.69,1-.18A14.18,14.18,0,0,0,22,38.54c2.56,1.08,5.32,1.37,8,2.06a15.85,15.85,0,0,1,7.58,4.08,9.55,9.55,0,0,1,2.63,5.1,8.27,8.27,0,0,1-2.49,7.94A10.06,10.06,0,0,1,35.14,59.4Z"/><path class="cls-5" d="M48.09,20.82a34.67,34.67,0,0,0-1.47-9.21C44.87,5.71,41.69.85,36.44-2.5A15.44,15.44,0,0,0,28.83-5a11.43,11.43,0,0,0-5,.91A9.33,9.33,0,0,0,18,1.54,8,8,0,0,0,18,6.74c.09.29.26.59-.34.45C15.35,6.66,13,6.25,10.7,5.9c-1-.16-1.06-.14-1.17.89a23.23,23.23,0,0,1-.36,2.62c-.13.64,0,.72.61.58a35.07,35.07,0,0,1,7.49-1.08c.2,0,.5-.12.61.11s-.18.37-.32.51a7.84,7.84,0,0,0-2.38,5.92,7.26,7.26,0,0,0,0,1.4,11.76,11.76,0,0,0,5,7.65,14,14,0,0,0,7.7,2.17A19.92,19.92,0,0,0,33.42,26c2.88-.72,5.64-1.9,8.59-2.36a11.45,11.45,0,0,1,5.61,0c.46.16.58-.09.59-.47C48.24,22.39,48.1,21.6,48.09,20.82Zm-3-8.11c.13.37.29.73.41,1.11a3.14,3.14,0,0,1,.31,1.2c0,.43-.62.36-.92.6a3.44,3.44,0,0,0-1.14,1.55L42.3,15.92a.51.51,0,0,1-.16-.47,3.21,3.21,0,0,1,2.17-3.1C44.67,12.25,44.94,12.32,45.07,12.71ZM43.55,9c.29.6.55,1.21.81,1.82.14.3.14.47-.29.5A3.31,3.31,0,0,0,41.13,14c-.22.69-.42.7-.89.28s-1-.39-.92-1a5.16,5.16,0,0,1,3.43-4.55A.58.58,0,0,1,43.55,9Zm-2-4.05c.47.84.93,1.68,1.41,2.51.21.37.07.43-.3.46A10.47,10.47,0,0,0,41,8.16a3.87,3.87,0,0,0-3,3.47c0,.22-.1.43-.13.65s-.14.31-.4.21c-1-.4-1.35-.78-1.22-1.9a7.2,7.2,0,0,1,1-3.64,6.54,6.54,0,0,1,4-2.26C41.4,4.65,41.47,4.77,41.55,4.91ZM39.17,1.85a10.74,10.74,0,0,1,1.37,1.64c.13.17.38.34.27.56s-.39.11-.6.1c-3.17-.1-5.58,2.94-5.63,5.76,0,.91,0,.91-.86.61-1.19-.42-1.36-.7-1.36-2.6a6.05,6.05,0,0,1,3.46-5.28c.74-.35,1.48-.67,2.22-1A1,1,0,0,1,39.17,1.85ZM36.48-.57C37,0,37.64.4,38.35,1A10.09,10.09,0,0,0,34.1,2c-1.82,1-2.51,2.76-3.07,4.6a5.65,5.65,0,0,0-.11,2.42c.07.45-.12.47-.42.42a10.28,10.28,0,0,0-1.07-.24c-.47,0-.62-.31-.73-.69a9.18,9.18,0,0,1,0-3.58C29,1.85,31.21.35,33.68-1A2.08,2.08,0,0,1,36.48-.57ZM31.8-3A11.17,11.17,0,0,1,34.4-2,11.25,11.25,0,0,0,29.27.28,6.75,6.75,0,0,0,26.94,8c.06.17.28.35.12.53s-.41,0-.62,0L26,8.32a2.7,2.7,0,0,1-2.2-2.82C23.63,2,25.5-.35,28.05-2.38A3.63,3.63,0,0,1,31.8-3ZM22.22-1.3a11.87,11.87,0,0,1,5.7-2,8.71,8.71,0,0,0-5.26,4.55c-1,2.22-1.45,4.51.32,6.77-1-.19-1.83-.39-2.7-.53a.82.82,0,0,1-.7-.64A6.93,6.93,0,0,1,22.22-1.3Zm-.43,24.85A9.4,9.4,0,0,1,17,16.82a9,9,0,0,1,1.53-6.31c.16-.25.33-.5.5-.74a1.29,1.29,0,0,1,1.56-.63c.7.19,1.44.25,2.36.4a8.51,8.51,0,0,0-2.15,1.94,9,9,0,0,0,.32,10c.47.61,1,1.13,1.54,1.7s1.18.86,1.72,1.39A8.87,8.87,0,0,1,21.79,23.55Zm2-.3A12.26,12.26,0,0,1,21,15.72a7.52,7.52,0,0,1,2.61-5.2c.81-.81,1.64-.54,2.51-.42.33.05.33.26.09.45a7.78,7.78,0,0,0-2.83,6.82,8.93,8.93,0,0,0,2.06,5.27c.68.85,1.6,1.44,2.31,2.36A3.72,3.72,0,0,1,23.76,23.25ZM43,19a1.93,1.93,0,0,0-.56,2.43c.23.48.18.6-.37.69a42.76,42.76,0,0,0-8.45,2.29,21.3,21.3,0,0,1-4.7.8.6.6,0,0,1-.54-.17A12.15,12.15,0,0,1,25,17.24a7.43,7.43,0,0,1,2.94-6A1.2,1.2,0,0,1,29.27,11a12.48,12.48,0,0,0,1.33.38,7.83,7.83,0,0,0-2.94,7.26,9,9,0,0,0,3.55,5.77c-.25-.47-.4-.77-.55-1.07s-.33-.67-.51-1a9.27,9.27,0,0,1-1.21-5.25,5.72,5.72,0,0,1,2.84-4.74c.83-.5,1.52.14,2.33.32-4.26,3.72-2.8,9.39.67,10.94-.37-.76-.7-1.41-1-2.06a6.53,6.53,0,0,1-.52-4.45,5.71,5.71,0,0,1,2.1-3,2.18,2.18,0,0,1,2,.43c.2.28-.06.33-.21.42-1.54,1-2.66,4.68-1.42,6.64A3.42,3.42,0,0,0,37.38,23a17.28,17.28,0,0,1-.81-2.39c-.27-1.45.26-4,1.78-4.86a1.5,1.5,0,0,1,2,.53c.17.31-.11.31-.25.41a3.66,3.66,0,0,0-1.69,3.17,3,3,0,0,0,1.17,2.28,8.58,8.58,0,0,1,0-2.09,3.43,3.43,0,0,1,1.74-2.27c.45-.24.8-.31,1.15.15a4.46,4.46,0,0,0,.57.58C43.23,18.66,43.31,18.77,43,19Zm3.32,3a4.7,4.7,0,0,0-2.47-.06.37.37,0,0,1-.51-.38A1.75,1.75,0,0,1,44,20.09c.46-.35.81-.12,1.19.16s.62.37,1,.59a4.25,4.25,0,0,0-1-1.84,2.24,2.24,0,0,1,.65-2.74c.26-.12.38,0,.43.23A21.7,21.7,0,0,1,47,21.42C47,21.83,46.93,22.12,46.36,22Z"/><path class="cls-5" d="M56.5,51c.83.09,1.66.16,2.48.31a22.77,22.77,0,0,1,4.07,1c.22.09.55.08.59.36s-.25.42-.44.55a5.58,5.58,0,0,0-1,1,9.81,9.81,0,0,0-2.47,8.33,11.41,11.41,0,0,0,5,8.08A19.72,19.72,0,0,0,75.1,73.78a44.66,44.66,0,0,1,6.33.31,13,13,0,0,1,6.11,2.59c.44.37.59.25.78-.15.06-.13.12-.27.17-.4a36.17,36.17,0,0,0,2-10.89,32.81,32.81,0,0,0,0-5.52,22.68,22.68,0,0,0-1.11-5.84,5.19,5.19,0,0,0-2-2.69,2.2,2.2,0,0,0,0,.27,4.93,4.93,0,0,1-5.21,5,4.35,4.35,0,0,1-3.94-4.75,4.62,4.62,0,0,1,4.64-3.86,8.84,8.84,0,0,1,3.35.86,7.45,7.45,0,0,0-2.06-3.53,12.35,12.35,0,0,0-10.88-3.69A8.75,8.75,0,0,0,67,45.67a10,10,0,0,0-1.7,5.54l-1.15-.91a44,44,0,0,0-5.44-3.53c-.22-.13-.46-.34-.66.06-.62,1.21-1.25,2.41-1.88,3.61C56,50.79,56.13,50.93,56.5,51Zm22.22,5.75s.07.08.11.1c.37.23.77.42,1.12.68.65.48-.21.65-.25,1a4.94,4.94,0,0,1-.45,1.23c-.09.22-.21.24-.39.08-.38-.34-.78-.67-1.15-1s-.15-.79-.21-1.14v-.35c0-.47,0-1.09.31-1.28S78.39,56.49,78.72,56.71ZM67.61,49.58a7.44,7.44,0,0,1,7.43-6,9.46,9.46,0,0,1,5.13,1.06c.57.34,1.1.75,1.63,1.14.13.09.32.26.31.38s-.28.22-.47.25a5.85,5.85,0,0,0-4.4,3.35,5.49,5.49,0,0,0-.42,4,1.44,1.44,0,0,1-.12,1.2,3.79,3.79,0,0,0-.54,2c0,.46-.15.39-.48.22a2.3,2.3,0,0,1-1.32-2.25c-.08-2.78,1.24-5,2.81-7a3.74,3.74,0,0,1,1.42-1c.55-.26,1.09-.55,1.83-.93a5.09,5.09,0,0,0-3.7.64,8.58,8.58,0,0,0-4,7.34c0,.35.2.86-.14,1s-.62-.29-1-.45a1,1,0,0,1-.55-1A9.41,9.41,0,0,1,72.86,47a8.54,8.54,0,0,1,2.54-2.21l.66-.43a6,6,0,0,0-3.55,1.28A6.85,6.85,0,0,0,69.63,52c0,.33.19.81-.11,1s-.67-.2-1-.38C67.28,51.81,67.2,51.52,67.61,49.58Zm-2.33,4.35A1.29,1.29,0,0,1,67,53.76a15.66,15.66,0,0,0,1.48.76C62.23,57.29,62.85,61.59,64,65a14.45,14.45,0,0,1,.34-3.14A7.42,7.42,0,0,1,70,55.72c.84-.22,1.24.55,2.08.87-3.23,1.09-5.3,3-6,6.27a7.41,7.41,0,0,0,.83,5.3c0-.51,0-1,0-1.54a7.9,7.9,0,0,1,2-6.08,9,9,0,0,1,4.65-2.72c.71-.2,1.14.65,1.82.93a8.17,8.17,0,0,0-6,6.6A6.15,6.15,0,0,0,70,69.92c.18-1,0-2,.18-2.92a10.12,10.12,0,0,1,2.06-4.51,6.61,6.61,0,0,1,4.08-2.31,2.62,2.62,0,0,1,2.06,1.28c.06.32-.27.28-.45.34a7,7,0,0,0-3.24,2.12c-1.56,1.89-2.21,4.73-.49,6.9,0-.76-.13-1.39-.15-2a5.36,5.36,0,0,1,1.11-3.38A5.59,5.59,0,0,1,79,62.88c.48-.07.81,0,1,.43s.86.6.76,1-.76.36-1.13.6a4.38,4.38,0,0,0-1.89,5.85c0,.06.1.09.27.24a7.39,7.39,0,0,1,.66-3.34,3.48,3.48,0,0,1,2.6-1.88c.85-.13,1.2.48,1.62,1s.61.82-.22,1.21a2.23,2.23,0,0,0-1.24,2.77c.06.15,0,.39.28.36s.16-.22.2-.36a2.6,2.6,0,0,1,1.64-1.94.65.65,0,0,1,.91.3,41.54,41.54,0,0,1,2.09,3.76,4.68,4.68,0,0,0-.25-2,11.33,11.33,0,0,0-.81-2.14,2.23,2.23,0,0,1,1.35-3.18c.43-.13.88-.23,1.33-.35-1.3-1.05-2.6-.7-3.92,1-1.38-.92-.94-3.1,0-4.09,1.27-1.35,1.26-1.36,4-2.32a4.64,4.64,0,0,0-4.28.52,4,4,0,0,0-1.87,2.3c-.17.53-.35.4-.63.1A3,3,0,0,1,82,58.24a1.19,1.19,0,0,1,.77-.16,6.22,6.22,0,0,0,5.1-2.36,10.13,10.13,0,0,1,.73,2.9,27.17,27.17,0,0,1,.29,6,32.27,32.27,0,0,1-1.41,8.77c-.19.55-.31.72-.88.34A13.87,13.87,0,0,0,81.25,72a44.47,44.47,0,0,0-6.31-.49,17.21,17.21,0,0,1-8.63-2.45,9.68,9.68,0,0,1-4.53-6.85C61.2,58.72,62.61,56.06,65.28,53.93Z"/><path class="cls-5" d="M8.56,151.68c.71.91,1.3,1.92,1.92,2.89.26.4.47.45.73,0a24.49,24.49,0,0,1,2-2.7,13.29,13.29,0,0,1,2.9-2.9c.87,5.31,4.46,8.49,9.64,9.12a11.52,11.52,0,0,0,8-2.11,21.8,21.8,0,0,0,6-6.19c1.15-1.74,1.9-3.73,3.2-5.39a13.51,13.51,0,0,1,5.74-4.71c.5-.19.31-.45.13-.73a14,14,0,0,0-2.91-3,49.77,49.77,0,0,0-10.66-7,18.41,18.41,0,0,0-6.6-2,3.81,3.81,0,0,0-2.43.57l.69.44a4.73,4.73,0,0,1,2.12,4.53,4.21,4.21,0,0,1-2.77,3.78,4.2,4.2,0,0,1-5.71-4.61,5.49,5.49,0,0,1,2.54-4c.12-.08.31-.13.21-.31s-.2-.14-.31-.15a11.71,11.71,0,0,0-4.66.54,13.65,13.65,0,0,0-6.06,4.77,9.62,9.62,0,0,0,.89,12.51,9.81,9.81,0,0,0,2.5,1.92,44,44,0,0,0-6.79,3.41C8.38,150.76,8,151,8.56,151.68ZM30,135.07a6.17,6.17,0,0,0,.53-5.25c-.22-.52.18-.44.48-.36a24.31,24.31,0,0,1,4.17,1.48A41.84,41.84,0,0,1,44,136.49a23.94,23.94,0,0,1,1.89,1.88c.21.21.38.44-.05.69a18.83,18.83,0,0,0-5.31,5.36c-1.3,1.74-2.18,3.75-3.47,5.49a14.71,14.71,0,0,1-6.9,5.57,9.16,9.16,0,0,1-9-1.43A8.48,8.48,0,0,1,18,148.36a1.31,1.31,0,0,1,.69-1.55,13.55,13.55,0,0,0,1.43-1c-.21,2.57-.09,5,1.8,6.81a9,9,0,0,0,5,2.23,14.45,14.45,0,0,1-3.51-2.9,6.75,6.75,0,0,1-1.77-5.78c.14-.86.25-1.59,1.16-1.93.2-.08.38-.34.59-.19s.11.42.07.63a7.1,7.1,0,0,0,0,2.56,7.94,7.94,0,0,0,4.94,6.17,5.82,5.82,0,0,0,2.82.51c-.75-.41-1.52-.79-2.25-1.23a7.89,7.89,0,0,1-3.89-6,11.45,11.45,0,0,1,.16-3.21,2.08,2.08,0,0,1,1.54-1.36c.39,0,.26.31.23.48A7.76,7.76,0,0,0,28.51,149a7.41,7.41,0,0,0,5.93,3c-1-.6-1.82-1.06-2.59-1.63a8.51,8.51,0,0,1-3.47-5.87,7.25,7.25,0,0,1,.53-3.1,2.53,2.53,0,0,1,1.94-.81c.24.12.15.32.12.51a6.78,6.78,0,0,0,1.26,5.5c1.29,1.63,2.43,2.17,4.83,2.09-.72-.34-1.33-.58-1.91-.89a6.43,6.43,0,0,1-2.93-4.17,4.35,4.35,0,0,1,0-2.4c.18-.73.47-1.35,1.39-1.34a6.19,6.19,0,0,0,1-.19c-.19,1.69-.16,3.31,1.2,4.57a5.92,5.92,0,0,0,3.4,1.36c-.76-.66-1.45-1.07-2.06-1.59a3.61,3.61,0,0,1-1.13-3.87,2.32,2.32,0,0,1,2.45-1.07c.42.2.2.62.21.93A2.22,2.22,0,0,0,41,142.28s.09,0,.2-.08a2.78,2.78,0,0,1-1.29-2.77c.05-.35.09-.51.49-.57a13.07,13.07,0,0,1,3.9,0,1,1,0,0,0,.55-.09,6.94,6.94,0,0,0-2.89-.91c-.58-.07-1.16-.17-1.76-.19s-1.55-1.08-1.61-1.9a3.62,3.62,0,0,1,.4-2,2.28,2.28,0,0,0-1.38,3.06c.44,1,.38,1.1-.76,1a2.92,2.92,0,0,1-2.41-1.92,5.62,5.62,0,0,1-.22-4.44,2.21,2.21,0,0,0,.07-.3c-2,.92-2.15,4.36-.26,7-2,.74-3.55,0-4.1-2A1.51,1.51,0,0,1,30,135.07ZM28.42,137a6.48,6.48,0,0,0,1.33,1.87c.25.22.16.33-.12.46-1.67.75-2.6.54-3.91-1A6.82,6.82,0,0,0,28.42,137Zm-13.19,7.18a7.33,7.33,0,0,1-2.08-8.52A9.11,9.11,0,0,1,18.7,130c.16-.05.32-.22.48-.1s0,.36,0,.53a6.09,6.09,0,0,0,4.12,7.71,2.11,2.11,0,0,1,1.19.86,4.74,4.74,0,0,0,1.32,1.28c.35.22.36.32-.06.58a2.37,2.37,0,0,1-2.65-.06,10,10,0,0,1-4.86-6.48,11.36,11.36,0,0,1,0-2.86l-.21,0a5.89,5.89,0,0,0-.38,6,9.71,9.71,0,0,0,4.48,4.73c.1,0,.2.12.31.19a1.94,1.94,0,0,1-2.59.4,8.67,8.67,0,0,1-4.9-7.92c0-.19,0-.39,0-.59,0,0,0-.08-.11-.26a9.19,9.19,0,0,0-.56,4c.32,2.92,2.11,4.67,4.57,5.89.43.21.64.33.08.68C17.09,145.64,17.38,145.9,15.23,144.18Z"/><path class="cls-5" d="M150.61,131.38a33.28,33.28,0,0,1-1.32-3.21c-.17-.45-.37-.54-.7-.18a25.6,25.6,0,0,1-2.54,2.24,13.06,13.06,0,0,1-3.42,2.27c.2-5.37-2.69-9.2-7.64-10.84a11.51,11.51,0,0,0-8.3.48,22,22,0,0,0-7.06,4.89c-1.47,1.49-2.59,3.28-4.2,4.65a13.41,13.41,0,0,1-6.56,3.49c-.53.08-.38.38-.26.69a13.61,13.61,0,0,0,2.24,3.54,50.17,50.17,0,0,0,9.08,8.93,18.61,18.61,0,0,0,6.09,3.23,3.81,3.81,0,0,0,2.49-.07c-.25-.24-.43-.4-.59-.57a4.77,4.77,0,0,1-1.19-4.86,4.19,4.19,0,0,1,3.47-3.15,4,4,0,0,1,4.11,1.59,4,4,0,0,1,.58,4.05,5.53,5.53,0,0,1-3.28,3.39c-.13.05-.33.06-.27.26a.44.44,0,0,0,.28.21,11.85,11.85,0,0,0,4.67.39,13.62,13.62,0,0,0,6.88-3.48,9.64,9.64,0,0,0,1.61-12.44,10,10,0,0,0-2.08-2.37,45,45,0,0,0,7.33-2C150.59,132.32,151,132.14,150.61,131.38Zm-24.29,12.05a6.17,6.17,0,0,0-1.56,5c.11.55-.26.39-.54.26a24.58,24.58,0,0,1-3.79-2.28,41.48,41.48,0,0,1-7.51-7.17,22,22,0,0,1-1.49-2.22c-.16-.25-.29-.51.19-.67a18.65,18.65,0,0,0,6.26-4.2c1.62-1.46,2.87-3.24,4.48-4.7a14.74,14.74,0,0,1,7.86-4.1,9.18,9.18,0,0,1,8.59,3.19,8.48,8.48,0,0,1,1.89,6.18,1.31,1.31,0,0,1-1,1.39,13.72,13.72,0,0,0-1.6.71c.71-2.47,1.06-4.86-.42-7a9.13,9.13,0,0,0-4.46-3.17,14.54,14.54,0,0,1,2.86,3.54,6.72,6.72,0,0,1,.6,6c-.31.82-.56,1.51-1.52,1.67-.21,0-.44.26-.61.07s0-.44.05-.64a7.06,7.06,0,0,0,.51-2.5,8,8,0,0,0-3.63-7,5.88,5.88,0,0,0-2.66-1.06c.66.55,1.34,1.08,2,1.66a8,8,0,0,1,2.62,6.68,11.66,11.66,0,0,1-.8,3.11,2.1,2.1,0,0,1-1.78,1c-.38-.07-.19-.35-.12-.51a7.83,7.83,0,0,0-.22-6.59,7.38,7.38,0,0,0-5.23-4.11c.83.78,1.58,1.39,2.22,2.11a8.49,8.49,0,0,1,2.25,6.44,7.22,7.22,0,0,1-1.13,2.93,2.55,2.55,0,0,1-2.06.42c-.22-.17-.09-.35,0-.53a6.8,6.8,0,0,0-.15-5.65c-.94-1.84-2-2.6-4.33-3,.64.47,1.2.83,1.7,1.25a6.37,6.37,0,0,1,2,4.66,4.34,4.34,0,0,1-.51,2.35c-.32.68-.73,1.23-1.63,1a4.89,4.89,0,0,0-1,0c.53-1.63.82-3.22-.27-4.72a5.85,5.85,0,0,0-3.07-2c.62.8,1.22,1.34,1.71,2a3.6,3.6,0,0,1,.34,4,2.3,2.3,0,0,1-2.61.57c-.37-.28-.07-.64,0-1a2.23,2.23,0,0,0-1.78-2.7s-.09,0-.21,0a2.78,2.78,0,0,1,.72,3c-.11.32-.19.48-.59.45a13.1,13.1,0,0,1-3.82-.76,1.05,1.05,0,0,0-.56,0,6.93,6.93,0,0,0,2.65,1.47c.56.18,1.11.4,1.69.53a2.2,2.2,0,0,1,1.2,2.18,3.7,3.7,0,0,1-.78,1.9,2.28,2.28,0,0,0,2-2.72c-.23-1.09-.15-1.15,1-.85a2.93,2.93,0,0,1,2,2.36,5.64,5.64,0,0,1-.66,4.39c0,.09-.08.18-.13.28,2.18-.5,3-3.85,1.64-6.81,2.08-.33,3.48.72,3.63,2.73A1.53,1.53,0,0,1,126.32,143.43Zm1.92-1.58a6.6,6.6,0,0,0-.94-2.09c-.2-.26-.09-.36.21-.43,1.79-.41,2.66,0,3.64,1.77A6.72,6.72,0,0,0,128.24,141.85Zm14.34-4.43a7.33,7.33,0,0,1,.36,8.76,9.06,9.06,0,0,1-6.56,4.46c-.16,0-.36.15-.49,0s.06-.36.14-.52a6.08,6.08,0,0,0-2.51-8.37,2.07,2.07,0,0,1-1-1.08,4.68,4.68,0,0,0-1.05-1.51c-.29-.28-.28-.38.18-.56a2.39,2.39,0,0,1,2.59.59,9.93,9.93,0,0,1,3.48,7.31,11.12,11.12,0,0,1-.52,2.8l.2.07a5.9,5.9,0,0,0,1.56-5.82A9.6,9.6,0,0,0,135.5,138a3.19,3.19,0,0,1-.26-.26,1.94,1.94,0,0,1,2.62.13,8.67,8.67,0,0,1,3.24,8.72c0,.2-.08.39-.11.59,0,0,0,.08.06.27a9.18,9.18,0,0,0,1.33-3.78c.26-2.92-1.14-5-3.32-6.68-.37-.29-.56-.45.05-.68C141.05,135.62,140.81,135.31,142.58,137.42Z"/><path class="cls-5" d="M141.64,3.25A32.91,32.91,0,0,1,139.72.36c-.26-.4-.47-.45-.73,0A24.49,24.49,0,0,1,137,3a13.29,13.29,0,0,1-2.9,2.9c-.87-5.31-4.47-8.49-9.64-9.12a11.52,11.52,0,0,0-8,2.11,21.8,21.8,0,0,0-6,6.19c-1.15,1.75-1.9,3.73-3.2,5.39a13.51,13.51,0,0,1-5.74,4.71c-.5.19-.31.45-.13.73a14.14,14.14,0,0,0,2.9,3,50.27,50.27,0,0,0,10.66,7,18.52,18.52,0,0,0,6.61,2,3.81,3.81,0,0,0,2.43-.57l-.7-.44a4.77,4.77,0,0,1-2.12-4.53,4.24,4.24,0,0,1,2.78-3.78,4.2,4.2,0,0,1,5.71,4.61,5.5,5.5,0,0,1-2.54,4c-.12.08-.32.13-.22.31a.44.44,0,0,0,.32.15,11.71,11.71,0,0,0,4.66-.54,13.57,13.57,0,0,0,6-4.77A9.6,9.6,0,0,0,137,9.79a9.81,9.81,0,0,0-2.5-1.92,44.41,44.41,0,0,0,6.79-3.41C141.81,4.17,142.17,3.92,141.64,3.25ZM120.21,19.86a6.17,6.17,0,0,0-.53,5.25c.22.52-.18.44-.48.36A24.31,24.31,0,0,1,115,24a41.84,41.84,0,0,1-8.78-5.55,23.94,23.94,0,0,1-1.89-1.88c-.21-.21-.38-.44,0-.69a18.83,18.83,0,0,0,5.31-5.36C111,8.77,111.9,6.77,113.19,5a14.71,14.71,0,0,1,6.9-5.57,9.16,9.16,0,0,1,9,1.43,8.48,8.48,0,0,1,3.08,5.69,1.31,1.31,0,0,1-.69,1.55,13.55,13.55,0,0,0-1.43,1c.21-2.57.08-5-1.8-6.81a9,9,0,0,0-5-2.23A14.45,14.45,0,0,1,126.8,3a6.75,6.75,0,0,1,1.77,5.78c-.14.86-.26,1.59-1.16,1.93-.2.08-.38.34-.59.19s-.11-.42-.08-.63a6.89,6.89,0,0,0,0-2.56,7.94,7.94,0,0,0-4.94-6.17A5.82,5.82,0,0,0,119,1c.75.41,1.52.79,2.25,1.23a7.89,7.89,0,0,1,3.89,6A11.45,11.45,0,0,1,125,11.5a2,2,0,0,1-1.53,1.36c-.39,0-.26-.31-.23-.48A7.76,7.76,0,0,0,121.69,6a7.41,7.41,0,0,0-5.93-3c1,.6,1.82,1.06,2.59,1.63a8.51,8.51,0,0,1,3.47,5.87,7.25,7.25,0,0,1-.53,3.1,2.53,2.53,0,0,1-1.94.81c-.24-.12-.15-.32-.12-.51A6.75,6.75,0,0,0,118,8.37c-1.28-1.63-2.42-2.17-4.82-2.09.72.34,1.33.58,1.91.89A6.43,6.43,0,0,1,118,11.34a4.35,4.35,0,0,1,0,2.4c-.18.73-.47,1.35-1.39,1.34a6.19,6.19,0,0,0-1,.19c.19-1.69.16-3.31-1.2-4.57A5.92,5.92,0,0,0,111,9.34c.76.66,1.45,1.07,2.06,1.59a3.61,3.61,0,0,1,1.13,3.87,2.32,2.32,0,0,1-2.45,1.07c-.42-.2-.2-.62-.21-.93a2.23,2.23,0,0,0-2.28-2.29s-.08,0-.19.08a2.77,2.77,0,0,1,1.28,2.77c0,.35-.08.51-.49.57a13,13,0,0,1-3.89,0,1,1,0,0,0-.55.09,6.94,6.94,0,0,0,2.89.91c.58.07,1.16.17,1.76.19s1.55,1.08,1.61,1.9a3.71,3.71,0,0,1-.4,2,2.28,2.28,0,0,0,1.38-3.06c-.44-1-.38-1.1.76-1A2.92,2.92,0,0,1,115.77,19a5.62,5.62,0,0,1,.22,4.44,2.21,2.21,0,0,0-.07.3c2-.92,2.15-4.36.26-7,2-.74,3.55,0,4.1,2A1.51,1.51,0,0,1,120.21,19.86Zm1.57-1.93a6.48,6.48,0,0,0-1.33-1.87c-.25-.21-.16-.33.12-.46,1.67-.75,2.6-.54,3.91,1A6.67,6.67,0,0,0,121.78,17.93ZM135,10.75a7.33,7.33,0,0,1,2.08,8.52,9.11,9.11,0,0,1-5.55,5.67c-.16,0-.32.22-.48.1s0-.36,0-.53a6.09,6.09,0,0,0-4.12-7.71,2.11,2.11,0,0,1-1.19-.86,4.78,4.78,0,0,0-1.33-1.28c-.34-.22-.35-.32.07-.58a2.37,2.37,0,0,1,2.65.06A10,10,0,0,1,132,20.62a11.37,11.37,0,0,1,0,2.86l.22,0a5.89,5.89,0,0,0,.38-6,9.71,9.71,0,0,0-4.48-4.73c-.1-.05-.2-.12-.31-.19a1.94,1.94,0,0,1,2.59-.4,8.69,8.69,0,0,1,4.9,7.92c0,.19,0,.39,0,.59,0,0,0,.08.11.26a9.19,9.19,0,0,0,.56-4c-.32-2.92-2.11-4.67-4.57-5.89-.43-.21-.64-.33-.08-.68C133.11,9.29,132.81,9,135,10.75Z"/><path class="cls-5" d="M96.15,141.59A9.28,9.28,0,0,0,91.78,134a10.31,10.31,0,0,0-8-1.24c.2-.44.36-.8.51-1.15a47.33,47.33,0,0,0,2-5.89c.25-.91.19-1-.76-1.19s-2-.39-3-.64c-.81-.2-.8-.23-.67.61a42.85,42.85,0,0,1,.44,6.4c0,.24,0,.58-.14.7s-.41-.16-.59-.28a10.12,10.12,0,0,0-6.25-1.91,11.15,11.15,0,0,0-9.59,6.25,15.56,15.56,0,0,0-1.53,7.67,26.72,26.72,0,0,0,1.13,7c1,3.46,1.23,6.95-.25,10.37-.18.41,0,.48.32.58a15.17,15.17,0,0,0,5.29.12,48,48,0,0,0,11.25-2.18,16.86,16.86,0,0,0,6.37-3.36,3.91,3.91,0,0,0,1.24-1.87,1,1,0,0,0-.27,0C86,155,82.55,152,83.13,148.83a4.32,4.32,0,0,1,4.32-3.59,4.86,4.86,0,0,1,4.29,5c0,.6-.12,1.2-.18,1.79a.67.67,0,0,0,.65-.21,10.52,10.52,0,0,0,3-4.07A13.21,13.21,0,0,0,96.15,141.59ZM84.48,155.08a2,2,0,0,0,.91.33A9.33,9.33,0,0,1,83,156.78a36.57,36.57,0,0,1-12.49,2.87c-.8,0-1.6.06-2.4,0-.3,0-.66,0-.52-.55a20.2,20.2,0,0,0,0-8.34c-.29-1.93-.95-3.78-1.16-5.73a14.39,14.39,0,0,1,1.41-8.94,9.09,9.09,0,0,1,9.44-4.61,8.63,8.63,0,0,1,3.85,1.85c.48.4.87.81.6,1.55-.18.51,0,1.12-.44,1.68-1.36-1.83-3-3.35-5.32-3.55A9,9,0,0,0,70.17,135a19,19,0,0,1,3.44-.5,7.34,7.34,0,0,1,6.85,3.4c.61.9.15,1.56,0,2.3-.09.38-.36,0-.43-.15a6.43,6.43,0,0,0-1.82-2,8,8,0,0,0-10.17.25,2.32,2.32,0,0,0-.15.23,23.17,23.17,0,0,1,3.29-.86,8,8,0,0,1,7.11,2.75c.1.12.18.24.28.34,1,1,1.56,2.05.49,3.39a7.74,7.74,0,0,0-6.59-4,6.37,6.37,0,0,0-5.43,2c.86-.22,1.6-.46,2.36-.58a8.62,8.62,0,0,1,6.9,1.66,7,7,0,0,1,1.92,2.73.74.74,0,0,1,0,.71c-.27.45-.56.9-.9,1.42A6.81,6.81,0,0,0,71,144.35a4.61,4.61,0,0,0-3.56,1.72.94.94,0,0,0,.85-.15c2.47-1.07,4.62-.39,6.61,1.17a4.7,4.7,0,0,1,1.3,2c.22.58-.36.91-.58,1.35s-.34.8-.85.08a4.4,4.4,0,0,0-6.76-.62l2.41-.22a3.36,3.36,0,0,1,3.44,2.06,1.3,1.3,0,0,1-.22,1.48c-.14.17-.3.33-.42.51-.33.53-.59.55-1,0a2.22,2.22,0,0,0-3.57-.05,2.91,2.91,0,0,1,1.84.17,3.14,3.14,0,0,1,.58.29c.88.68.91,1.12.1,1.9s-1.77,1.68-2.62,2.62a9.15,9.15,0,0,0,1-.4,13.41,13.41,0,0,0,2.94-2,2.35,2.35,0,0,1,3,.79c.21.35.37.74.56,1.11a2.19,2.19,0,0,0-1.06-3.05c-.3-.15-.94-.13-.82-.49a1.77,1.77,0,0,1,1.08-1.11c1.73-.58,3.1.16,4.38,1.18a9.44,9.44,0,0,1,1.65,2.21,4.18,4.18,0,0,0-.69-2.85,5,5,0,0,0-3.56-2.32c-.5-.07-.43-.26-.22-.56a3,3,0,0,1,4.41-.69,1,1,0,0,1,.34.62A6.58,6.58,0,0,0,84.48,155.08Zm-2-9.12a6.46,6.46,0,0,0-.92,2.34c0,.26-.2.37-.41.27a6.4,6.4,0,0,0-1.8-.3c-.28,0-.46-.09-.33-.46C79.63,146.22,80.65,145.65,82.5,146Zm10.73,1.25a.73.73,0,0,1-.33.42,6.61,6.61,0,0,0-1.85-2.58,6,6,0,0,0-6.64-.69,1.46,1.46,0,0,1-1.36.17,3.94,3.94,0,0,0-2,0c-.36.06-.39,0-.31-.38a2.45,2.45,0,0,1,2-1.9,10.26,10.26,0,0,1,5.68.33,6.74,6.74,0,0,1,3.71,2.57c.12.16.25.3.38.45a.88.88,0,0,0,.22.09,4.71,4.71,0,0,0-1.63-3.33,8.74,8.74,0,0,0-8.42-1.78c-.18,0-.38.22-.55.08s0-.37.07-.53c.16-.51.17-1,.88-1.29a9,9,0,0,1,10.16,2.66,2.09,2.09,0,0,0-.44-1c-1.35-2.13-3.09-3.73-5.77-3.86a8.45,8.45,0,0,0-3.3.51c-.18.07-.38.22-.55,0s-.09-.39,0-.56a4.33,4.33,0,0,0,.24-1,1.06,1.06,0,0,1,.94-.9c3.9-.86,7.17.5,8.9,4.32A9.11,9.11,0,0,1,93.23,147.21Z"/><path class="cls-5" d="M91.37,11.46c-.31-3-1.16-5.86-1.36-8.86a14.55,14.55,0,0,1,.51-5.46c.25-.77.23-.86-.63-.92A49.53,49.53,0,0,0,82.09-4a30.54,30.54,0,0,0-9,2A21.34,21.34,0,0,0,61.12,8.76,13.08,13.08,0,0,0,59.85,14a12.14,12.14,0,0,0,.43,3,9.76,9.76,0,0,0,4.07,6.21A8.59,8.59,0,0,0,71,24.42c-.1.31-.17.52-.23.73-.7,2.28-1.39,4.57-2.1,6.84-.14.45,4.15,1.59,4.11,1.13-.07-.69-.09-1.38-.18-2.06a39.83,39.83,0,0,1-.1-5.24c0-.3.08-.8.25-.87.37-.15.42.38.64.57s.14.14.21.21a8.47,8.47,0,0,0,7.82,2.51,11.25,11.25,0,0,0,8.15-5.76A18,18,0,0,0,91.37,11.46Zm-8-14a16.21,16.21,0,0,1,5.2-.14c.28.06.5.17.32.56A7.07,7.07,0,0,0,88.45.28c0,.44-.2.59-.59.52A1.5,1.5,0,0,1,86.66,0c-.25-.5.15-.72.34-1a11.39,11.39,0,0,1,.71-1,6.81,6.81,0,0,0-2.11.88,2.2,2.2,0,0,1-2.45-1.06C83.1-2.43,83.14-2.57,83.37-2.59Zm-3.71.7a5.43,5.43,0,0,0,.86-.22c1.31-.31,1.32-.31,1.91.84a2.46,2.46,0,0,0,.88,1c.43.25.3.43,0,.64-.5.38-.76,1.15-1.62,1A3.38,3.38,0,0,1,79.1-1.13C79.06-1.55,79.15-1.85,79.66-1.89Zm-4,1.1c.64-.19,1.27-.4,1.9-.58.35-.1.54,0,.51.39-.17,2.07,1.32,2.76,2.86,3.52,0,0,0,0,0,.07-.42.46-.66,1.27-1.34,1.27a4.56,4.56,0,0,1-2.63-1A4.69,4.69,0,0,1,75.27,0C75.18-.31,75.21-.66,75.65-.79ZM71.5.69C72.34.34,73.19,0,74-.37c.45-.2.5,0,.5.37a10.87,10.87,0,0,0,.06,2.06,4.18,4.18,0,0,0,3.71,3.2l.27,0C78,6.64,77.39,7,76.11,6.65A6.64,6.64,0,0,1,72.64,5,7.19,7.19,0,0,1,71.1,1.22C71,.92,71.26.79,71.5.69ZM69.16,2a6,6,0,0,1,1.38-.73c-.09,1.54-.19,3,.78,4.31,1.17,1.52,2.55,2.68,4.61,2.64.42,0,.55.12.32.51l0,.07c-.7,1.54-1.3,1.81-3,1.44A6.49,6.49,0,0,1,68,4.93C67.54,2.92,67.22,3.36,69.16,2Zm-4,3.38a11.76,11.76,0,0,1,2-1.71,11,11,0,0,0,.4,3.74,6.5,6.5,0,0,0,4,3.89,4.76,4.76,0,0,0,2.78.49c.4-.08.48.1.35.45C74,14,74.4,14.11,72.34,14a8.43,8.43,0,0,1-4.94-1.66,8.59,8.59,0,0,1-2.54-3.91,4.89,4.89,0,0,0-.27-.76A1.72,1.72,0,0,1,65.11,5.38Zm6.29,17c-.24.76-1,.61-1.49.68A6.83,6.83,0,0,1,63,19.34a11,11,0,0,1-1.32-5.75c.18.55.35,1.1.55,1.64a8,8,0,0,0,.86,1.54,8.23,8.23,0,0,0,6.38,3.73,4.83,4.83,0,0,0,2.74-.74C72,20.62,71.68,21.48,71.4,22.34Zm1.27-4.83c-.15.47-.56.61-.94.76A5.45,5.45,0,0,1,67,17.78a11,11,0,0,1-5-5.63A1.66,1.66,0,0,1,61.9,11a13.09,13.09,0,0,1,1.45-3.45c.09-.14.14-.36.36-.28s.11.25.12.39a9.41,9.41,0,0,0,2.41,6,6.3,6.3,0,0,0,6.28,2l.71-.17.16,0C73.14,16.22,72.89,16.86,72.67,17.51Zm8.9,8.93c-3.36.67-6-.71-8.32-3.07a1.08,1.08,0,0,1-.18-1.11c.22-.78.48-1.55.75-2.43C75.28,23,78,24.17,81.11,24.2s5.65-1.65,7.7-4C87.42,23.48,85.12,25.74,81.57,26.44Zm6.67-6.34a13.26,13.26,0,0,1-7.87,2.51,7.25,7.25,0,0,1-5.92-4c-.22-.39-.12-.7.43-2.2a8.28,8.28,0,0,0,7.25,4,10.54,10.54,0,0,0,7.58-3.62C89.57,18.05,89.52,19.27,88.24,20.1Zm1.69-4.4a.93.93,0,0,1-.41.65,12.31,12.31,0,0,1-7.39,2.39,7.49,7.49,0,0,1-6.31-4,.64.64,0,0,1,0-.63c.22-.52.42-1.05.66-1.67,3.72,5.29,9.44,4.41,12.82,1.05a3.06,3.06,0,0,0-1.25.39,10.94,10.94,0,0,1-5.16,1,6.29,6.29,0,0,1-4.78-2.57c-.85-1.24-.81-1.87.15-3.19a6.87,6.87,0,0,0,6.69,3.2A5.37,5.37,0,0,0,89,9.79a2,2,0,0,0-.94.23c-1.65.61-3.28,1.15-5.09.6a5.27,5.27,0,0,1-3.18-2.45A1.87,1.87,0,0,1,80.35,6c.24-.16.31,0,.38.16.91,1.86,2.7,2.26,4.46,2.62A3.57,3.57,0,0,0,88.69,7a7.16,7.16,0,0,1-3.22.48,4.31,4.31,0,0,1-3.86-2.54c-.19-.44.51-1.67,1-1.66.19,0,.21.18.29.3a4.08,4.08,0,0,0,2.81,2.07,2.86,2.86,0,0,0,2.52-.94,5.49,5.49,0,0,1-2.67-.53A3.49,3.49,0,0,1,83.93,2a.4.4,0,0,1,.17-.51c.32-.23.65-.44,1-.68s.3-.16.47.07a2,2,0,0,0,2.84.61c.12,1.16.26,2.32.35,3.48a47.43,47.43,0,0,0,1,5.43A13.55,13.55,0,0,1,89.93,15.7Z"/><path class="cls-5" d="M91.41,115a33.61,33.61,0,0,1-6.18-2.39c-.59-.31-.47-.5,0-.75a7.39,7.39,0,0,0,1.83-1.36,10.25,10.25,0,0,0,3.16-9.24A11.94,11.94,0,0,0,85,92.85,23.09,23.09,0,0,0,74.49,89a15.29,15.29,0,0,1-9.36-4.42c-.32-.33-.56-.38-.81,0a17.47,17.47,0,0,0-1,1.72,46.59,46.59,0,0,0-3.13,9.82c-.69,3.42-1.3,6.86-.65,10.36a5.65,5.65,0,0,0,1.55,3.24,5,5,0,0,1,5.28-4.46,4.14,4.14,0,0,1,3.54,2.3,4,4,0,0,1-.11,4.09,4.91,4.91,0,0,1-6.29,1.62,9.81,9.81,0,0,1-1.21-.71c-.29-.2-.4-.11-.39.21a2.27,2.27,0,0,0,.12.5A10.8,10.8,0,0,0,67.58,120a11.43,11.43,0,0,0,7,1.59,9.92,9.92,0,0,0,8.22-7.75c0-.14.09-.34.19-.38s.3.13.39.25a46,46,0,0,0,5.47,5.16c.25.23.39.12.54-.07.9-1.19,1.79-2.39,2.71-3.62C91.83,115.09,91.62,115,91.41,115ZM69.62,104.79c-.16-.1-.35-.25-.12-.46a9.26,9.26,0,0,0,1.29-2c.26.36.47.63.67.9a2.66,2.66,0,0,1,.18,3.1c-.16.27-.27.39-.49,0A5.32,5.32,0,0,0,69.62,104.79Zm11.24,8.14a7.38,7.38,0,0,1-5.62,6.24,9.67,9.67,0,0,1-8.7-2.31,1.14,1.14,0,0,1-.15-.16c-.29-.38-.89-.76-.79-1.15s.79-.11,1.22-.14A6,6,0,0,0,72,110a3.87,3.87,0,0,1,.73-2.76,5.5,5.5,0,0,0,.69-1.62c1.33.71,1.4,1.83,1.13,3.18a10.36,10.36,0,0,1-4,6.07,9,9,0,0,1-3,1.29,3.52,3.52,0,0,0,2.6.23c2.74-.61,4.36-2.52,5.47-5a11.27,11.27,0,0,0,.73-2.55c.08-.4.16-.43.5-.18a2.11,2.11,0,0,1,.75,2.4A8.93,8.93,0,0,1,73.85,117a15,15,0,0,1-2.68,1.36c4.68,0,7.48-2.73,7.81-7.62a11.2,11.2,0,0,1,1.59,1.16A1,1,0,0,1,80.86,112.93Zm2.25-2.15c-.79.4-1.29-.23-1.83-.6-.28-.2-.81-.34-.73-.71s.59-.21.91-.32c2-.66,3.82-1.66,4.68-3.73a8.77,8.77,0,0,0,.58-4.7c0-.3-.07-.59-.11-.89-.33.33-.28.78-.35,1.17a10.73,10.73,0,0,1-2.43,5,6.71,6.71,0,0,1-3.94,2c-1.2.26-1.55.08-2.51-1.12a8,8,0,0,0,6.9-10.57,4.22,4.22,0,0,0-.26,1.6c-.43,4.22-3.42,6.89-7.57,7.57-.78.13-1.16-.12-2-1.28a8.18,8.18,0,0,0,6.72-4.89,6.74,6.74,0,0,0,.18-5.2,2.15,2.15,0,0,0-.26,1.19,9,9,0,0,1-3.78,6.27,6.75,6.75,0,0,1-4.27,1.1,4.4,4.4,0,0,1-1.27-1.55c0-.29.23-.2.37-.24a12.53,12.53,0,0,0,2.64-.92,5.94,5.94,0,0,0,3-6.48,2.5,2.5,0,0,0-.35-.74,14.94,14.94,0,0,0-.22,1.75C77,97,73.92,99.75,71.41,99.55c-.57,0-1.6-1-1.59-1.56,0-.34.31-.32.54-.37A4.37,4.37,0,0,0,73.64,95a5.52,5.52,0,0,0,.07-3.34,14.17,14.17,0,0,1-1,2.77,3.26,3.26,0,0,1-3,1.84,1.45,1.45,0,0,1-1.52-1c-.13-.34-.48-.7-.42-1s.6-.29.93-.41A2.3,2.3,0,0,0,70,90.72,11.67,11.67,0,0,1,69.29,92a2.72,2.72,0,0,1-1.85,1c-.32.06-.39-.23-.49-.46a33.92,33.92,0,0,1-1.42-4.17,2.7,2.7,0,0,0-.18,1.78,11.37,11.37,0,0,0,.54,2.59,2.36,2.36,0,0,1-2.23,3h-.9c.64,1.24,2.3,1,3.22.28s.84-.67,1.27.34c.31.72-.32,2.28-1.07,3a5.39,5.39,0,0,1-4,1.61.54.54,0,0,0-.21.05s-.07.07-.15.16a3.69,3.69,0,0,0,2.88.48,4.52,4.52,0,0,0,3.52-2.39c.19-.35.29-.4.53,0a2.92,2.92,0,0,1-1,4.39.82.82,0,0,1-.61.18A6.48,6.48,0,0,0,61.68,105c-.31.28-.33,0-.37-.24a18.39,18.39,0,0,1,0-5.08,41,41,0,0,1,2-8.68,19.86,19.86,0,0,1,1.36-3.19c.37-.68.45-.68,1-.18a14.14,14.14,0,0,0,4.28,2.29c2.55,1.08,5.31,1.37,8,2a16,16,0,0,1,7.57,4.08,9.6,9.6,0,0,1,2.64,5.1,8.28,8.28,0,0,1-2.49,7.94A10.12,10.12,0,0,1,83.11,110.78Z"/><path class="cls-5" d="M144,107.52a34.3,34.3,0,0,1-6.18-2.38c-.59-.32-.47-.51,0-.75a7.63,7.63,0,0,0,1.82-1.37,10.24,10.24,0,0,0,3.17-9.23,11.92,11.92,0,0,0-5.27-8.36,23,23,0,0,0-10.49-3.85,15.33,15.33,0,0,1-9.35-4.41c-.32-.33-.56-.38-.81,0a17.47,17.47,0,0,0-1,1.72,46.49,46.49,0,0,0-3.13,9.83c-.69,3.42-1.31,6.85-.65,10.36a5.59,5.59,0,0,0,1.55,3.23A5,5,0,0,1,119,97.88a4.16,4.16,0,0,1,3.54,2.3,4,4,0,0,1-.11,4.1,4.91,4.91,0,0,1-6.29,1.61,9.81,9.81,0,0,1-1.21-.71c-.3-.19-.41-.1-.39.21a2.15,2.15,0,0,0,.12.5,10.79,10.79,0,0,0,5.54,6.69,11.49,11.49,0,0,0,7,1.6,10,10,0,0,0,8.22-7.76c0-.14.09-.33.19-.38s.29.13.39.25a46.92,46.92,0,0,0,5.47,5.17c.25.22.39.12.54-.07l2.71-3.63ZM122.21,97.37c-.16-.11-.36-.25-.12-.47a8.66,8.66,0,0,0,1.28-2l.68.9a2.68,2.68,0,0,1,.18,3.1c-.16.28-.27.39-.49,0A5.21,5.21,0,0,0,122.21,97.37Zm11.24,8.13a7.4,7.4,0,0,1-5.62,6.25,9.67,9.67,0,0,1-8.7-2.32.71.71,0,0,1-.15-.15c-.29-.39-.9-.77-.79-1.15s.79-.11,1.22-.14a6,6,0,0,0,5.15-5.45,3.79,3.79,0,0,1,.73-2.75,6,6,0,0,0,.68-1.62c1.34.7,1.41,1.82,1.14,3.18a10.39,10.39,0,0,1-4,6.06,9,9,0,0,1-3,1.29,3.51,3.51,0,0,0,2.6.23c2.73-.61,4.35-2.51,5.47-5a11.34,11.34,0,0,0,.73-2.54c.08-.41.16-.44.5-.19a2.13,2.13,0,0,1,.75,2.4,8.91,8.91,0,0,1-3.65,5.93,15.37,15.37,0,0,1-2.68,1.37c4.67,0,7.47-2.74,7.81-7.62a11,11,0,0,1,1.59,1.16A1,1,0,0,1,133.45,105.5Zm2.25-2.14c-.79.39-1.29-.24-1.83-.61-.28-.19-.81-.34-.73-.71s.59-.21.91-.31c2-.67,3.82-1.67,4.68-3.74a8.76,8.76,0,0,0,.58-4.7c0-.29-.07-.58-.11-.89-.34.33-.28.79-.35,1.17a10.72,10.72,0,0,1-2.43,5,6.7,6.7,0,0,1-3.94,2c-1.2.26-1.55.08-2.51-1.12a8,8,0,0,0,6.89-10.56,4.36,4.36,0,0,0-.25,1.59c-.44,4.22-3.42,6.89-7.57,7.58-.78.13-1.16-.13-2-1.29a8.18,8.18,0,0,0,6.72-4.89,6.78,6.78,0,0,0,.18-5.2,2.16,2.16,0,0,0-.27,1.19,9,9,0,0,1-3.77,6.27,6.78,6.78,0,0,1-4.28,1.1,4.21,4.21,0,0,1-1.26-1.55c0-.29.23-.2.37-.24a12,12,0,0,0,2.64-.91,6,6,0,0,0,3-6.49,2.62,2.62,0,0,0-.35-.74,15.5,15.5,0,0,0-.22,1.75c-.23,2.54-3.27,5.28-5.78,5.08-.58,0-1.6-1-1.59-1.56,0-.34.31-.32.54-.37a4.36,4.36,0,0,0,3.28-2.59,5.55,5.55,0,0,0,.07-3.35,14.94,14.94,0,0,1-1,2.78,3.29,3.29,0,0,1-3,1.84,1.46,1.46,0,0,1-1.51-1.05c-.14-.34-.48-.7-.42-1s.6-.3.93-.41a2.29,2.29,0,0,0,1.25-3.12,11.66,11.66,0,0,1-.67,1.32,2.73,2.73,0,0,1-1.86.95c-.32.07-.39-.22-.48-.45a33,33,0,0,1-1.42-4.18,2.73,2.73,0,0,0-.18,1.79,11.06,11.06,0,0,0,.54,2.59,2.36,2.36,0,0,1-2.23,2.94h-.9c.63,1.24,2.3,1,3.22.29s.84-.68,1.27.33c.31.72-.32,2.28-1.07,3a5.4,5.4,0,0,1-4,1.62.41.41,0,0,0-.21.05s-.07.06-.16.15a3.75,3.75,0,0,0,2.88.49,4.59,4.59,0,0,0,3.53-2.39c.18-.35.29-.41.53,0a2.94,2.94,0,0,1-1,4.4.87.87,0,0,1-.61.18,6.43,6.43,0,0,0-5.46,1.28c-.32.27-.33,0-.37-.25a17.94,17.94,0,0,1,0-5.07,40.41,40.41,0,0,1,2-8.68,19.48,19.48,0,0,1,1.36-3.19c.37-.68.45-.69,1-.18a14.41,14.41,0,0,0,4.27,2.28c2.56,1.08,5.32,1.37,8,2.06a15.86,15.86,0,0,1,7.57,4.08,9.57,9.57,0,0,1,2.64,5.1,8.3,8.3,0,0,1-2.5,7.94A10.15,10.15,0,0,1,135.7,103.36Z"/><path class="cls-5" d="M107.29,42.77c.82.09,1.66.16,2.47.31a22.88,22.88,0,0,1,4.08,1c.22.09.55.08.59.35s-.25.43-.44.56a5.63,5.63,0,0,0-1,1,9.84,9.84,0,0,0-2.47,8.33,11.42,11.42,0,0,0,5,8.08,19.66,19.66,0,0,0,10.36,3.18,46.34,46.34,0,0,1,6.34.3,13.1,13.1,0,0,1,6.1,2.6c.44.37.59.25.79-.15.06-.13.12-.27.17-.4a36.16,36.16,0,0,0,2-10.89,31.79,31.79,0,0,0,0-5.52,21.87,21.87,0,0,0-1.11-5.84,5.23,5.23,0,0,0-2-2.69,1.16,1.16,0,0,0,0,.26,4.94,4.94,0,0,1-5.22,5,4.35,4.35,0,0,1-3.93-4.75,4.61,4.61,0,0,1,4.64-3.86,8.64,8.64,0,0,1,3.35.85A7.55,7.55,0,0,0,135,37a12.41,12.41,0,0,0-10.89-3.7,8.77,8.77,0,0,0-6.3,4.2,10,10,0,0,0-1.7,5.54c-.44-.34-.79-.63-1.16-.91a43.89,43.89,0,0,0-5.43-3.53c-.23-.13-.46-.34-.67.06-.61,1.21-1.25,2.41-1.87,3.61C106.79,42.6,106.91,42.73,107.29,42.77Zm22.22,5.75s.06.08.1.1c.38.23.78.42,1.13.68.65.48-.21.65-.25,1a5.38,5.38,0,0,1-.45,1.23c-.09.22-.22.24-.39.08l-1.16-1c-.36-.34-.14-.8-.21-1.14v-.35c0-.47,0-1.09.32-1.28S129.18,48.3,129.51,48.52Zm-11.12-7.13a7.45,7.45,0,0,1,7.44-6A9.44,9.44,0,0,1,131,36.4c.57.34,1.1.74,1.64,1.13.13.1.32.27.3.39s-.27.22-.46.25a5.81,5.81,0,0,0-4.4,3.35,5.47,5.47,0,0,0-.43,4,1.46,1.46,0,0,1-.11,1.21,3.7,3.7,0,0,0-.54,2c0,.46-.16.39-.48.22a2.31,2.31,0,0,1-1.33-2.25c-.07-2.78,1.25-5,2.82-7a3.71,3.71,0,0,1,1.41-1l1.83-.93a5.07,5.07,0,0,0-3.69.64,8.57,8.57,0,0,0-4,7.34c0,.35.2.86-.14,1s-.62-.29-.94-.45a1,1,0,0,1-.56-1,9.45,9.45,0,0,1,1.75-6.34,8.66,8.66,0,0,1,2.54-2.21l.66-.43a6,6,0,0,0-3.54,1.28,6.83,6.83,0,0,0-2.88,6.28c0,.33.18.81-.11,1s-.68-.2-1-.38C118.06,43.62,118,43.33,118.39,41.39Zm-2.32,4.34a1.29,1.29,0,0,1,1.68-.16,15.88,15.88,0,0,0,1.49.76c-6.23,2.77-5.61,7.07-4.49,10.51a15,15,0,0,1,.34-3.14,7.43,7.43,0,0,1,5.65-6.17c.83-.22,1.23.54,2.08.86-3.24,1.1-5.31,3.06-6,6.28a7.41,7.41,0,0,0,.84,5.3c0-.52,0-1,0-1.54a7.94,7.94,0,0,1,2-6.08,9,9,0,0,1,4.64-2.72c.72-.2,1.14.65,1.82.93a8.19,8.19,0,0,0-6,6.6,6.2,6.2,0,0,0,.76,4.57c.19-1,0-2,.19-2.92a10,10,0,0,1,2.06-4.51A6.56,6.56,0,0,1,127.12,52a2.59,2.59,0,0,1,2.06,1.28c.06.32-.27.28-.45.34a6.93,6.93,0,0,0-3.23,2.12c-1.57,1.89-2.21,4.73-.5,6.89,0-.75-.12-1.39-.14-2A5.31,5.31,0,0,1,126,57.22a5.57,5.57,0,0,1,3.81-2.53c.49-.07.82,0,1.05.43s.85.6.75,1-.75.36-1.12.6a4.37,4.37,0,0,0-1.89,5.85c0,.06.1.09.26.24a7.4,7.4,0,0,1,.67-3.34,3.43,3.43,0,0,1,2.59-1.88c.86-.13,1.21.48,1.63,1s.6.82-.22,1.21a2.22,2.22,0,0,0-1.24,2.77c.06.15,0,.39.28.36s.15-.22.2-.36a2.6,2.6,0,0,1,1.64-1.94.65.65,0,0,1,.91.3,40.15,40.15,0,0,1,2.08,3.76,4.66,4.66,0,0,0-.25-2,10.68,10.68,0,0,0-.81-2.14,2.23,2.23,0,0,1,1.36-3.18c.43-.14.87-.23,1.33-.35-1.31-1-2.6-.7-3.92,1-1.39-.92-1-3.1,0-4.09,1.27-1.35,1.25-1.37,4-2.32a4.67,4.67,0,0,0-4.28.51,4.08,4.08,0,0,0-1.86,2.3c-.17.54-.35.41-.63.11a3,3,0,0,1,.45-4.55,1.21,1.21,0,0,1,.78-.16,6.25,6.25,0,0,0,5.1-2.36,10.13,10.13,0,0,1,.73,2.9,27.76,27.76,0,0,1,.29,6,32.67,32.67,0,0,1-1.41,8.77c-.19.54-.31.72-.88.34A13.87,13.87,0,0,0,132,63.84a44.35,44.35,0,0,0-6.31-.49,17.08,17.08,0,0,1-8.62-2.46A9.67,9.67,0,0,1,112.56,54C112,50.53,113.39,47.87,116.07,45.73Z"/></g></g><g class="cls-3"><path class="cls-6" d="M54.07,97.26A15,15,0,0,0,43,106.21c-3.24,7.65-.62-.42,7,2.82,1.45.62,37.67,30,75.34,4.17a15,15,0,1,0-17.53-24.43c-23.39,21.11-43.3,19.63-44.16,19.29-2.8-1.18-6.82-11.31-9.6-10.8"/><path class="cls-6" d="M51,158.59c20.72,3.44,40.12-9.4,43.32-28.7s-11-37.72-31.72-41.16-40.12,9.4-43.32,28.7,11,37.72,31.72,41.16"/><path class="cls-6" d="M109.46,45.5c3.54-6.26,1.1-14.34-5.44-18a13.33,13.33,0,0,0-18.25,4.67,21.71,21.71,0,0,0-2.27,7.5,55.27,55.27,0,0,0-23.42-4.16,22.07,22.07,0,0,0,.23-7.58A13.34,13.34,0,0,0,44.54,17.58c-7.37,1.38-12.3,8.26-11,15.32a23.39,23.39,0,0,0,4.2,8.93C30,46.51,24.56,53.48,23.16,61.91c-3,18.13,13.68,36,37.3,39.93s45.19-7.6,48.21-25.72c1.35-8.17-1.31-16.26-6.78-23.07a24,24,0,0,0,7.57-7.55"/><path class="cls-7" d="M42.34,69.1A11.63,11.63,0,0,1,33.82,62a11.92,11.92,0,0,1,6.45-15.42c1.14-.47,28.06-11.31,57.58,10.49a11.83,11.83,0,0,1,2.47,16.46A11.62,11.62,0,0,1,84.1,76.17L84,76.1c-18.58-13.73-34.37-7.94-35-7.69a11.33,11.33,0,0,1-6.63.69"/><path class="cls-6" d="M50,62.23a4.89,4.89,0,1,0-3.9-5.72.43.43,0,0,1,0,.11A4.83,4.83,0,0,0,50,62.23h0"/><path class="cls-6" d="M85.41,68.13a4.9,4.9,0,1,0-3.89-5.73s0,.08,0,.12a4.82,4.82,0,0,0,3.9,5.6h0"/><path class="cls-8" d="M70.17,66.54a2.91,2.91,0,0,0-5.53-1.24C37.33,89,27.81,82.12,27.81,82.12c30.33,38.09,69.47,12.19,69.47,12.19C82.33,89,72.45,71,70.17,66.53"/><path class="cls-6" d="M67,67a3,3,0,1,0-2.6-3.47A3.07,3.07,0,0,0,67,67h0"/><path class="cls-6" d="M50.16,79.59s0,.07,0,.11c-.86,5.2,4.86,10.49,12.8,11.8s15-1.84,15.91-7v-.11C75.59,86.88,69.89,88,63.66,87S52.43,83,50.17,79.6"/><path class="cls-8" d="M107.68,109.76c5.72,3.31,19.61-1.1,20.55-6.68s-3.57-11.3-10.1-12.38-9.66,1.29-10.59,6.88-5.79,8.78.14,12.18"/><path class="cls-7" d="M137.19,100c-.29-2.51-4.78-5.75-6.7-4.76a4.35,4.35,0,0,0-1.49,5.88c1.16,2.24,2.58,2.66,4.5,1.68s4-.22,3.69-2.8"/><path class="cls-7" d="M131.06,85.79c-2.28-1.07-7.38,1.07-7.56,3.21s1.73,4.16,4.23,4.36,3.62-.81,3.79-3,1.9-3.51-.46-4.61"/><g class="cls-9"><path class="cls-7" d="M118.41,80.9c2.34.93,4.28,6.13,2.83,7.71a4.36,4.36,0,0,1-6.07-.1c-1.86-1.68-1.89-3.19-.43-4.78S116,80,118.41,80.91"/></g></g></svg>